<svg xmlns="http://www.w3.org/2000/svg" width="1536" height="1024" viewBox="0 0 1536 1024"><defs><radialGradient id="bg"><stop stop-color="#293d58"/><stop offset="1" stop-color="#0b172b"/></radialGradient><filter id="shadow"><feDropShadow dx="0" dy="16" stdDeviation="18" flood-opacity=".45"/></filter></defs><rect width="1536" height="1024" fill="url(#bg)"/><g filter="url(#shadow)"><rect x="868" y="280" width="464" height="464" fill="white"/><rect x="932" y="344" width="16" height="16" fill="#0a1527"/><rect x="948" y="344" width="16" height="16" fill="#0a1527"/><rect x="964" y="344" width="16" height="16" fill="#0a1527"/><rect x="980" y="344" width="16" height="16" fill="#0a1527"/><rect x="996" y="344" width="16" height="16" fill="#0a1527"/><rect x="1012" y="344" width="16" height="16" fill="#0a1527"/><rect x="1028" y="344" width="16" height="16" fill="#0a1527"/><rect x="1060" y="344" width="16" height="16" fill="#0a1527"/><rect x="1076" y="344" width="16" height="16" fill="#0a1527"/><rect x="1124" y="344" width="16" height="16" fill="#0a1527"/><rect x="1156" y="344" width="16" height="16" fill="#0a1527"/><rect x="1172" y="344" width="16" height="16" fill="#0a1527"/><rect x="1188" y="344" width="16" height="16" fill="#0a1527"/><rect x="1204" y="344" width="16" height="16" fill="#0a1527"/><rect x="1220" y="344" width="16" height="16" fill="#0a1527"/><rect x="1236" y="344" width="16" height="16" fill="#0a1527"/><rect x="1252" y="344" width="16" height="16" fill="#0a1527"/><rect x="932" y="360" width="16" height="16" fill="#0a1527"/><rect x="1028" y="360" width="16" height="16" fill="#0a1527"/><rect x="1076" y="360" width="16" height="16" fill="#0a1527"/><rect x="1124" y="360" width="16" height="16" fill="#0a1527"/><rect x="1156" y="360" width="16" height="16" fill="#0a1527"/><rect x="1252" y="360" width="16" height="16" fill="#0a1527"/><rect x="932" y="376" width="16" height="16" fill="#0a1527"/><rect x="964" y="376" width="16" height="16" fill="#0a1527"/><rect x="980" y="376" width="16" height="16" fill="#0a1527"/><rect x="996" y="376" width="16" height="16" fill="#0a1527"/><rect x="1028" y="376" width="16" height="16" fill="#0a1527"/><rect x="1060" y="376" width="16" height="16" fill="#0a1527"/><rect x="1092" y="376" width="16" height="16" fill="#0a1527"/><rect x="1124" y="376" width="16" height="16" fill="#0a1527"/><rect x="1156" y="376" width="16" height="16" fill="#0a1527"/><rect x="1188" y="376" width="16" height="16" fill="#0a1527"/><rect x="1204" y="376" width="16" height="16" fill="#0a1527"/><rect x="1220" y="376" width="16" height="16" fill="#0a1527"/><rect x="1252" y="376" width="16" height="16" fill="#0a1527"/><rect x="932" y="392" width="16" height="16" fill="#0a1527"/><rect x="964" y="392" width="16" height="16" fill="#0a1527"/><rect x="980" y="392" width="16" height="16" fill="#0a1527"/><rect x="996" y="392" width="16" height="16" fill="#0a1527"/><rect x="1028" y="392" width="16" height="16" fill="#0a1527"/><rect x="1060" y="392" width="16" height="16" fill="#0a1527"/><rect x="1108" y="392" width="16" height="16" fill="#0a1527"/><rect x="1156" y="392" width="16" height="16" fill="#0a1527"/><rect x="1188" y="392" width="16" height="16" fill="#0a1527"/><rect x="1204" y="392" width="16" height="16" fill="#0a1527"/><rect x="1220" y="392" width="16" height="16" fill="#0a1527"/><rect x="1252" y="392" width="16" height="16" fill="#0a1527"/><rect x="932" y="408" width="16" height="16" fill="#0a1527"/><rect x="964" y="408" width="16" height="16" fill="#0a1527"/><rect x="980" y="408" width="16" height="16" fill="#0a1527"/><rect x="996" y="408" width="16" height="16" fill="#0a1527"/><rect x="1028" y="408" width="16" height="16" fill="#0a1527"/><rect x="1060" y="408" width="16" height="16" fill="#0a1527"/><rect x="1076" y="408" width="16" height="16" fill="#0a1527"/><rect x="1092" y="408" width="16" height="16" fill="#0a1527"/><rect x="1108" y="408" width="16" height="16" fill="#0a1527"/><rect x="1156" y="408" width="16" height="16" fill="#0a1527"/><rect x="1188" y="408" width="16" height="16" fill="#0a1527"/><rect x="1204" y="408" width="16" height="16" fill="#0a1527"/><rect x="1220" y="408" width="16" height="16" fill="#0a1527"/><rect x="1252" y="408" width="16" height="16" fill="#0a1527"/><rect x="932" y="424" width="16" height="16" fill="#0a1527"/><rect x="1028" y="424" width="16" height="16" fill="#0a1527"/><rect x="1156" y="424" width="16" height="16" fill="#0a1527"/><rect x="1252" y="424" width="16" height="16" fill="#0a1527"/><rect x="932" y="440" width="16" height="16" fill="#0a1527"/><rect x="948" y="440" width="16" height="16" fill="#0a1527"/><rect x="964" y="440" width="16" height="16" fill="#0a1527"/><rect x="980" y="440" width="16" height="16" fill="#0a1527"/><rect x="996" y="440" width="16" height="16" fill="#0a1527"/><rect x="1012" y="440" width="16" height="16" fill="#0a1527"/><rect x="1028" y="440" width="16" height="16" fill="#0a1527"/><rect x="1060" y="440" width="16" height="16" fill="#0a1527"/><rect x="1092" y="440" width="16" height="16" fill="#0a1527"/><rect x="1124" y="440" width="16" height="16" fill="#0a1527"/><rect x="1156" y="440" width="16" height="16" fill="#0a1527"/><rect x="1172" y="440" width="16" height="16" fill="#0a1527"/><rect x="1188" y="440" width="16" height="16" fill="#0a1527"/><rect x="1204" y="440" width="16" height="16" fill="#0a1527"/><rect x="1220" y="440" width="16" height="16" fill="#0a1527"/><rect x="1236" y="440" width="16" height="16" fill="#0a1527"/><rect x="1252" y="440" width="16" height="16" fill="#0a1527"/><rect x="1076" y="456" width="16" height="16" fill="#0a1527"/><rect x="1092" y="456" width="16" height="16" fill="#0a1527"/><rect x="1108" y="456" width="16" height="16" fill="#0a1527"/><rect x="1124" y="456" width="16" height="16" fill="#0a1527"/><rect x="932" y="472" width="16" height="16" fill="#0a1527"/><rect x="948" y="472" width="16" height="16" fill="#0a1527"/><rect x="964" y="472" width="16" height="16" fill="#0a1527"/><rect x="980" y="472" width="16" height="16" fill="#0a1527"/><rect x="1028" y="472" width="16" height="16" fill="#0a1527"/><rect x="1060" y="472" width="16" height="16" fill="#0a1527"/><rect x="1092" y="472" width="16" height="16" fill="#0a1527"/><rect x="1140" y="472" width="16" height="16" fill="#0a1527"/><rect x="1188" y="472" width="16" height="16" fill="#0a1527"/><rect x="1204" y="472" width="16" height="16" fill="#0a1527"/><rect x="1220" y="472" width="16" height="16" fill="#0a1527"/><rect x="1252" y="472" width="16" height="16" fill="#0a1527"/><rect x="964" y="488" width="16" height="16" fill="#0a1527"/><rect x="980" y="488" width="16" height="16" fill="#0a1527"/><rect x="996" y="488" width="16" height="16" fill="#0a1527"/><rect x="1044" y="488" width="16" height="16" fill="#0a1527"/><rect x="1108" y="488" width="16" height="16" fill="#0a1527"/><rect x="1140" y="488" width="16" height="16" fill="#0a1527"/><rect x="1172" y="488" width="16" height="16" fill="#0a1527"/><rect x="1188" y="488" width="16" height="16" fill="#0a1527"/><rect x="1220" y="488" width="16" height="16" fill="#0a1527"/><rect x="1252" y="488" width="16" height="16" fill="#0a1527"/><rect x="932" y="504" width="16" height="16" fill="#0a1527"/><rect x="996" y="504" width="16" height="16" fill="#0a1527"/><rect x="1028" y="504" width="16" height="16" fill="#0a1527"/><rect x="1044" y="504" width="16" height="16" fill="#0a1527"/><rect x="1076" y="504" width="16" height="16" fill="#0a1527"/><rect x="1092" y="504" width="16" height="16" fill="#0a1527"/><rect x="1140" y="504" width="16" height="16" fill="#0a1527"/><rect x="1156" y="504" width="16" height="16" fill="#0a1527"/><rect x="1172" y="504" width="16" height="16" fill="#0a1527"/><rect x="1236" y="504" width="16" height="16" fill="#0a1527"/><rect x="1252" y="504" width="16" height="16" fill="#0a1527"/><rect x="980" y="520" width="16" height="16" fill="#0a1527"/><rect x="1060" y="520" width="16" height="16" fill="#0a1527"/><rect x="1076" y="520" width="16" height="16" fill="#0a1527"/><rect x="1108" y="520" width="16" height="16" fill="#0a1527"/><rect x="1140" y="520" width="16" height="16" fill="#0a1527"/><rect x="1172" y="520" width="16" height="16" fill="#0a1527"/><rect x="1204" y="520" width="16" height="16" fill="#0a1527"/><rect x="1236" y="520" width="16" height="16" fill="#0a1527"/><rect x="932" y="536" width="16" height="16" fill="#0a1527"/><rect x="964" y="536" width="16" height="16" fill="#0a1527"/><rect x="996" y="536" width="16" height="16" fill="#0a1527"/><rect x="1012" y="536" width="16" height="16" fill="#0a1527"/><rect x="1028" y="536" width="16" height="16" fill="#0a1527"/><rect x="1044" y="536" width="16" height="16" fill="#0a1527"/><rect x="1060" y="536" width="16" height="16" fill="#0a1527"/><rect x="1076" y="536" width="16" height="16" fill="#0a1527"/><rect x="1092" y="536" width="16" height="16" fill="#0a1527"/><rect x="1108" y="536" width="16" height="16" fill="#0a1527"/><rect x="1124" y="536" width="16" height="16" fill="#0a1527"/><rect x="1156" y="536" width="16" height="16" fill="#0a1527"/><rect x="1236" y="536" width="16" height="16" fill="#0a1527"/><rect x="1252" y="536" width="16" height="16" fill="#0a1527"/><rect x="1060" y="552" width="16" height="16" fill="#0a1527"/><rect x="1076" y="552" width="16" height="16" fill="#0a1527"/><rect x="1108" y="552" width="16" height="16" fill="#0a1527"/><rect x="1124" y="552" width="16" height="16" fill="#0a1527"/><rect x="1156" y="552" width="16" height="16" fill="#0a1527"/><rect x="1188" y="552" width="16" height="16" fill="#0a1527"/><rect x="1220" y="552" width="16" height="16" fill="#0a1527"/><rect x="1252" y="552" width="16" height="16" fill="#0a1527"/><rect x="932" y="568" width="16" height="16" fill="#0a1527"/><rect x="948" y="568" width="16" height="16" fill="#0a1527"/><rect x="964" y="568" width="16" height="16" fill="#0a1527"/><rect x="980" y="568" width="16" height="16" fill="#0a1527"/><rect x="996" y="568" width="16" height="16" fill="#0a1527"/><rect x="1012" y="568" width="16" height="16" fill="#0a1527"/><rect x="1028" y="568" width="16" height="16" fill="#0a1527"/><rect x="1092" y="568" width="16" height="16" fill="#0a1527"/><rect x="1108" y="568" width="16" height="16" fill="#0a1527"/><rect x="1140" y="568" width="16" height="16" fill="#0a1527"/><rect x="1172" y="568" width="16" height="16" fill="#0a1527"/><rect x="1188" y="568" width="16" height="16" fill="#0a1527"/><rect x="1220" y="568" width="16" height="16" fill="#0a1527"/><rect x="932" y="584" width="16" height="16" fill="#0a1527"/><rect x="1028" y="584" width="16" height="16" fill="#0a1527"/><rect x="1076" y="584" width="16" height="16" fill="#0a1527"/><rect x="1140" y="584" width="16" height="16" fill="#0a1527"/><rect x="1204" y="584" width="16" height="16" fill="#0a1527"/><rect x="1220" y="584" width="16" height="16" fill="#0a1527"/><rect x="1252" y="584" width="16" height="16" fill="#0a1527"/><rect x="932" y="600" width="16" height="16" fill="#0a1527"/><rect x="964" y="600" width="16" height="16" fill="#0a1527"/><rect x="980" y="600" width="16" height="16" fill="#0a1527"/><rect x="996" y="600" width="16" height="16" fill="#0a1527"/><rect x="1028" y="600" width="16" height="16" fill="#0a1527"/><rect x="1076" y="600" width="16" height="16" fill="#0a1527"/><rect x="1124" y="600" width="16" height="16" fill="#0a1527"/><rect x="1156" y="600" width="16" height="16" fill="#0a1527"/><rect x="1204" y="600" width="16" height="16" fill="#0a1527"/><rect x="1220" y="600" width="16" height="16" fill="#0a1527"/><rect x="1236" y="600" width="16" height="16" fill="#0a1527"/><rect x="932" y="616" width="16" height="16" fill="#0a1527"/><rect x="964" y="616" width="16" height="16" fill="#0a1527"/><rect x="980" y="616" width="16" height="16" fill="#0a1527"/><rect x="996" y="616" width="16" height="16" fill="#0a1527"/><rect x="1028" y="616" width="16" height="16" fill="#0a1527"/><rect x="1060" y="616" width="16" height="16" fill="#0a1527"/><rect x="1076" y="616" width="16" height="16" fill="#0a1527"/><rect x="1092" y="616" width="16" height="16" fill="#0a1527"/><rect x="1124" y="616" width="16" height="16" fill="#0a1527"/><rect x="1156" y="616" width="16" height="16" fill="#0a1527"/><rect x="1204" y="616" width="16" height="16" fill="#0a1527"/><rect x="1236" y="616" width="16" height="16" fill="#0a1527"/><rect x="932" y="632" width="16" height="16" fill="#0a1527"/><rect x="964" y="632" width="16" height="16" fill="#0a1527"/><rect x="980" y="632" width="16" height="16" fill="#0a1527"/><rect x="996" y="632" width="16" height="16" fill="#0a1527"/><rect x="1028" y="632" width="16" height="16" fill="#0a1527"/><rect x="1060" y="632" width="16" height="16" fill="#0a1527"/><rect x="1076" y="632" width="16" height="16" fill="#0a1527"/><rect x="1108" y="632" width="16" height="16" fill="#0a1527"/><rect x="1124" y="632" width="16" height="16" fill="#0a1527"/><rect x="1140" y="632" width="16" height="16" fill="#0a1527"/><rect x="1204" y="632" width="16" height="16" fill="#0a1527"/><rect x="932" y="648" width="16" height="16" fill="#0a1527"/><rect x="1028" y="648" width="16" height="16" fill="#0a1527"/><rect x="1060" y="648" width="16" height="16" fill="#0a1527"/><rect x="1076" y="648" width="16" height="16" fill="#0a1527"/><rect x="1092" y="648" width="16" height="16" fill="#0a1527"/><rect x="1140" y="648" width="16" height="16" fill="#0a1527"/><rect x="1156" y="648" width="16" height="16" fill="#0a1527"/><rect x="1172" y="648" width="16" height="16" fill="#0a1527"/><rect x="1252" y="648" width="16" height="16" fill="#0a1527"/><rect x="932" y="664" width="16" height="16" fill="#0a1527"/><rect x="948" y="664" width="16" height="16" fill="#0a1527"/><rect x="964" y="664" width="16" height="16" fill="#0a1527"/><rect x="980" y="664" width="16" height="16" fill="#0a1527"/><rect x="996" y="664" width="16" height="16" fill="#0a1527"/><rect x="1012" y="664" width="16" height="16" fill="#0a1527"/><rect x="1028" y="664" width="16" height="16" fill="#0a1527"/><rect x="1060" y="664" width="16" height="16" fill="#0a1527"/><rect x="1076" y="664" width="16" height="16" fill="#0a1527"/><rect x="1092" y="664" width="16" height="16" fill="#0a1527"/><rect x="1124" y="664" width="16" height="16" fill="#0a1527"/><rect x="1140" y="664" width="16" height="16" fill="#0a1527"/><rect x="1156" y="664" width="16" height="16" fill="#0a1527"/><rect x="1172" y="664" width="16" height="16" fill="#0a1527"/><rect x="1188" y="664" width="16" height="16" fill="#0a1527"/><rect x="1204" y="664" width="16" height="16" fill="#0a1527"/><rect x="1220" y="664" width="16" height="16" fill="#0a1527"/></g></svg>